# xmcd CD database file
#
# Track frame offsets:
#	183
#	17700
#	29793
#	59298
#	75170
#	94908
#	119735
#	137735
#	152693
#	187278
#	198550
#	209500
#
# Disc length: 3066 seconds
#
# Revision: 3
# Processed by: cddbd v1.5PL3 Copyright (c) Steve Scherf et al.
# Submitted via: CDex 1.51
#
DISCID=b00bf80c
DTITLE=Savoy Brown - Getting to the Point
DYEAR=1968
DGENRE=Blues
TTITLE0=Flood In Houston
TTITLE1=Stay With Me Baby
TTITLE2=Honey Bee
TTITLE3=The Incredible Gnome Meets Jaxman
TTITLE4=Give Me a Penny
TTITLE5=Mr. Downchild
TTITLE6=Getting to the Point
TTITLE7=Big City Lights
TTITLE8=You Need Love
TTITLE9=Walking By Myself
TTITLE10=Taste and Try, Before You Buy
TTITLE11=Someday People
EXTD=YEAR: 1968
EXTT0=
EXTT1=
EXTT2=
EXTT3=
EXTT4=
EXTT5=
EXTT6=
EXTT7=
EXTT8=
EXTT9=
EXTT10=
EXTT11=
PLAYORDER=
